<svg xmlns="http://www.w3.org/2000/svg" xmlns:xlink="http://www.w3.org/1999/xlink" contentStyleType="text/css" data-diagram-type="DESCRIPTION" height="451px" preserveAspectRatio="none" style="width:1199px;height:451px;background:#FFFFFF;" version="1.1" viewBox="0 0 1199 451" width="1199px" zoomAndPan="magnify"><?plantuml 1.2026.6?><defs/><g><!--cluster Kanboard : Board Analytics Plugin--><g class="cluster" data-qualified-name="Kanboard . Board Analytics Plugin" data-source-line="13" id="ent0005"><rect fill="none" height="338" rx="2.5" ry="2.5" style="stroke:#181818;stroke-width:1;" width="856.01" x="167.27" y="7"/><text fill="#000000" font-family="sans-serif" font-size="14" font-weight="700" lengthAdjust="spacing" textLength="270.1426" x="460.2037" y="21.9951">Kanboard : Board Analytics Plugin</text></g><!--entity UC1--><g class="entity" data-qualified-name="Kanboard . Board Analytics Plugin.UC1" data-source-line="14" id="ent0006"><ellipse cx="578.5289" cy="263.0025" fill="#F1F1F1" rx="98.1589" ry="24.0425" style="stroke:#181818;stroke-width:0.5;"/><text fill="#000000" font-family="sans-serif" font-size="14" lengthAdjust="spacing" textLength="147.3965" x="504.8307" y="262.4878">View Board Analytics</text><text fill="#000000" font-family="sans-serif" font-size="14" lengthAdjust="spacing" textLength="76.2002" x="540.4288" y="278.7847">Dashboard</text></g><!--entity UC2--><g class="entity" data-qualified-name="Kanboard . Board Analytics Plugin.UC2" data-source-line="15" id="ent0007"><ellipse cx="904.4901" cy="309" fill="#F1F1F1" rx="88.8001" ry="20.16" style="stroke:#181818;stroke-width:0.5;"/><text fill="#000000" font-family="sans-serif" font-size="14" lengthAdjust="spacing" textLength="151.0195" x="828.9803" y="313.6484">See tasks per column</text></g><!--entity UC3--><g class="entity" data-qualified-name="Kanboard . Board Analytics Plugin.UC3" data-source-line="16" id="ent0008"><ellipse cx="904.4878" cy="233.0016" fill="#F1F1F1" rx="93.4578" ry="21.0916" style="stroke:#181818;stroke-width:0.5;"/><text fill="#000000" font-family="sans-serif" font-size="14" lengthAdjust="spacing" textLength="161.5264" x="823.7246" y="237.65">See tasks per assignee</text></g><!--entity UC4--><g class="entity" data-qualified-name="Kanboard . Board Analytics Plugin.UC4" data-source-line="17" id="ent0009"><ellipse cx="904.4921" cy="151.9994" fill="#F1F1F1" rx="102.7921" ry="25.2694" style="stroke:#181818;stroke-width:0.5;"/><text fill="#000000" font-family="sans-serif" font-size="14" lengthAdjust="spacing" textLength="146.0566" x="831.4638" y="149.6194">See tasks completed</text><text fill="#000000" font-family="sans-serif" font-size="14" lengthAdjust="spacing" textLength="124.373" x="842.3056" y="165.9162">over last N weeks</text></g><!--entity UC5--><g class="entity" data-qualified-name="Kanboard . Board Analytics Plugin.UC5" data-source-line="18" id="ent0010"><ellipse cx="270.3231" cy="297.999" fill="#F1F1F1" rx="87.0531" ry="25.669" style="stroke:#181818;stroke-width:0.5;"/><text fill="#000000" font-family="sans-serif" font-size="14" lengthAdjust="spacing" textLength="120.8525" x="209.8969" y="295.0385">Choose reporting</text><text fill="#000000" font-family="sans-serif" font-size="14" lengthAdjust="spacing" textLength="112.5674" x="214.0394" y="311.3354">window (weeks)</text></g><!--entity UC6--><g class="entity" data-qualified-name="Kanboard . Board Analytics Plugin.UC6" data-source-line="19" id="ent0011"><ellipse cx="904.4851" cy="67.003" fill="#F1F1F1" rx="100.2351" ry="24.713" style="stroke:#181818;stroke-width:0.5;"/><text fill="#000000" font-family="sans-serif" font-size="14" lengthAdjust="spacing" textLength="105.4238" x="851.7731" y="61.5543">Authenticate &amp;</text><text fill="#000000" font-family="sans-serif" font-size="14" lengthAdjust="spacing" textLength="145.9609" x="831.5046" y="77.8511">check project access</text></g><!--entity Member--><g class="entity" data-qualified-name="Member" data-source-line="7" id="ent0001"><ellipse cx="270.3246" cy="377.85" fill="#F1F1F1" rx="16" ry="16" style="stroke:#181818;stroke-width:0.5;"/><path d="M270.3246,397.85 C274.3246,397.85 277.3246,397.85 281.3246,393.85 C289.3246,393.85 297.3246,401.85 297.3246,409.85 L297.3246,413.85 C297.3246,417.85 293.3246,421.85 289.3246,421.85 L251.3246,421.85 C247.3246,421.85 243.3246,417.85 243.3246,413.85 L243.3246,409.85 C243.3246,401.85 251.3246,393.85 259.3246,393.85 C263.3246,397.85 266.3246,397.85 270.3246,397.85" fill="#F1F1F1" style="stroke:#181818;stroke-width:0.5;"/><text fill="#000000" font-family="sans-serif" font-size="14" lengthAdjust="spacing" textLength="110.4893" x="215.08" y="435.3451">Project Member</text></g><!--entity Manager--><g class="entity" data-qualified-name="Manager" data-source-line="8" id="ent0002"><ellipse cx="63.1348" cy="328.85" fill="#F1F1F1" rx="16" ry="16" style="stroke:#181818;stroke-width:0.5;"/><path d="M63.1348,348.85 C67.1348,348.85 70.1348,348.85 74.1348,344.85 C82.1348,344.85 90.1348,352.85 90.1348,360.85 L90.1348,364.85 C90.1348,368.85 86.1348,372.85 82.1348,372.85 L44.1348,372.85 C40.1348,372.85 36.1348,368.85 36.1348,364.85 L36.1348,360.85 C36.1348,352.85 44.1348,344.85 52.1348,344.85 C56.1348,348.85 59.1348,348.85 63.1348,348.85" fill="#F1F1F1" style="stroke:#181818;stroke-width:0.5;"/><text fill="#000000" font-family="sans-serif" font-size="14" lengthAdjust="spacing" textLength="114.2695" x="6" y="386.3451">Project Manager</text></g><!--entity System--><g class="entity" data-qualified-name="System" data-source-line="9" id="ent0003"><ellipse cx="1127.5788" cy="28.56" fill="#F1F1F1" rx="16" ry="16" style="stroke:#181818;stroke-width:0.5;"/><path d="M1127.5788,48.56 C1131.5788,48.56 1134.5788,48.56 1138.5788,44.56 C1146.5788,44.56 1154.5788,52.56 1154.5788,60.56 L1154.5788,64.56 C1154.5788,68.56 1150.5788,72.56 1146.5788,72.56 L1108.5788,72.56 C1104.5788,72.56 1100.5788,68.56 1100.5788,64.56 L1100.5788,60.56 C1100.5788,52.56 1108.5788,44.56 1116.5788,44.56 C1120.5788,48.56 1123.5788,48.56 1127.5788,48.56" fill="#F1F1F1" style="stroke:#181818;stroke-width:0.5;"/><text fill="#000000" font-family="sans-serif" font-size="14" lengthAdjust="spacing" textLength="67.3066" x="1070.28" y="86.0551">Kanboard</text><text fill="#000000" font-family="sans-serif" font-size="14" lengthAdjust="spacing" textLength="108.2334" x="1070.28" y="102.352">(Authentication</text><text fill="#000000" font-family="sans-serif" font-size="14" lengthAdjust="spacing" textLength="114.5977" x="1070.28" y="118.6489">&amp; Authorization)</text></g><!--link Manager to Member--><g class="link" data-entity-1="ent0002" data-entity-2="ent0001" data-link-type="extension" data-source-line="11" id="lnk4"><path d="M120.75,364.52 C150.05,371.52 168.1423,375.8391 197.1623,382.7691" fill="none" id="Manager-to-Member" style="stroke:#181818;stroke-width:1;"/><polygon fill="none" points="214.67,386.95,198.5559,376.9332,195.7687,388.605,214.67,386.95" style="stroke:#181818;stroke-width:1;stroke-linejoin:miter;stroke-miterlimit:10;"/></g><!--link Member to UC1--><g class="link" data-entity-1="ent0001" data-entity-2="ent0006" data-link-type="dependency" data-source-line="22" id="lnk12"><path d="M326.07,375.51 C384.21,349.49 470.6161,310.8422 525.7261,286.1822" fill="none" id="Member-to-UC1" style="stroke:#181818;stroke-width:1;"/><polygon fill="#181818" points="530.29,284.14,520.4412,284.1648,525.7261,286.1822,523.7087,291.4671,530.29,284.14" style="stroke:#181818;stroke-width:1;stroke-linejoin:miter;stroke-miterlimit:10;"/></g><!--link UC1 to UC2--><g class="link" data-entity-1="ent0006" data-entity-2="ent0007" data-link-type="dependency" data-source-line="23" id="lnk13"><path d="M664.23,275.03 C715.03,282.24 774.1296,290.6376 823.1796,297.5976" fill="none" id="UC1-to-UC2" style="stroke:#181818;stroke-width:1;stroke-dasharray:7,7;"/><polygon fill="#181818" points="828.13,298.3,819.7812,293.0753,823.1796,297.5976,818.6573,300.9959,828.13,298.3" style="stroke:#181818;stroke-width:1;stroke-linejoin:miter;stroke-miterlimit:10;"/><text fill="#000000" font-family="sans-serif" font-size="13" lengthAdjust="spacing" textLength="63.0068" x="707.69" y="277.9469">&#171;include&#187;</text></g><!--link UC1 to UC3--><g class="link" data-entity-1="ent0006" data-entity-2="ent0008" data-link-type="dependency" data-source-line="24" id="lnk14"><path d="M671.07,254.53 C717,250.27 767.3413,245.611 812.4813,241.431" fill="none" id="UC1-to-UC3" style="stroke:#181818;stroke-width:1;stroke-dasharray:7,7;"/><polygon fill="#181818" points="817.46,240.97,808.1295,237.8169,812.4813,241.431,808.8672,245.7828,817.46,240.97" style="stroke:#181818;stroke-width:1;stroke-linejoin:miter;stroke-miterlimit:10;"/><text fill="#000000" font-family="sans-serif" font-size="13" lengthAdjust="spacing" textLength="63.0068" x="707.69" y="241.3769">&#171;include&#187;</text></g><!--link UC1 to UC4--><g class="link" data-entity-1="ent0006" data-entity-2="ent0009" data-link-type="dependency" data-source-line="25" id="lnk15"><path d="M637.08,243.28 C695.08,223.41 779.4902,194.4913 838.4502,174.2813" fill="none" id="UC1-to-UC4" style="stroke:#181818;stroke-width:1;stroke-dasharray:7,7;"/><polygon fill="#181818" points="843.18,172.66,833.3693,171.7944,838.4502,174.2813,835.9633,179.3622,843.18,172.66" style="stroke:#181818;stroke-width:1;stroke-linejoin:miter;stroke-miterlimit:10;"/><text fill="#000000" font-family="sans-serif" font-size="13" lengthAdjust="spacing" textLength="63.0068" x="707.69" y="193.6269">&#171;include&#187;</text></g><!--link UC1 to UC6--><g class="link" data-entity-1="ent0006" data-entity-2="ent0011" data-link-type="dependency" data-source-line="26" id="lnk16"><path d="M608.33,239.82 C649.42,207.5 728.07,148.47 801.69,109 C816.18,101.23 827.8076,95.8562 842.9876,89.5962" fill="none" id="UC1-to-UC6" style="stroke:#181818;stroke-width:1;stroke-dasharray:7,7;"/><polygon fill="#181818" points="847.61,87.69,837.7648,87.4233,842.9876,89.5962,840.8147,94.8191,847.61,87.69" style="stroke:#181818;stroke-width:1;stroke-linejoin:miter;stroke-miterlimit:10;"/><text fill="#000000" font-family="sans-serif" font-size="13" lengthAdjust="spacing" textLength="63.0068" x="707.69" y="123.1769">&#171;include&#187;</text></g><!--link UC5 to UC1--><g class="link" data-entity-1="ent0010" data-entity-2="ent0006" data-link-type="dependency" data-source-line="27" id="lnk17"><path d="M352.18,288.76 C394.26,283.95 440.8223,278.6274 483.9823,273.6974" fill="none" id="UC5-to-UC1" style="stroke:#181818;stroke-width:1;stroke-dasharray:7,7;"/><polygon fill="#181818" points="488.95,273.13,479.5542,270.1772,483.9823,273.6974,480.4621,278.1256,488.95,273.13" style="stroke:#181818;stroke-width:1;stroke-linejoin:miter;stroke-miterlimit:10;"/><text fill="#000000" font-family="sans-serif" font-size="13" lengthAdjust="spacing" textLength="61.1851" x="388.38" y="274.4769">&#171;extend&#187;</text></g><!--link Manager to UC5--><g class="link" data-entity-1="ent0002" data-entity-2="ent0010" data-link-type="dependency" data-source-line="28" id="lnk18"><path d="M120.75,336.38 C146.49,329.73 172.2587,323.0697 198.9887,316.1697" fill="none" id="Manager-to-UC5" style="stroke:#181818;stroke-width:1;"/><polygon fill="#181818" points="203.83,314.92,194.1159,313.2965,198.9887,316.1697,196.1154,321.0425,203.83,314.92" style="stroke:#181818;stroke-width:1;stroke-linejoin:miter;stroke-miterlimit:10;"/></g><!--link UC6 to System--><g class="link" data-entity-1="ent0011" data-entity-2="ent0003" data-link-type="dependency" data-source-line="30" id="lnk19"><path d="M1005.04,67 C1027.27,67 1045.11,67 1064.89,67" fill="none" id="UC6-to-System" style="stroke:#181818;stroke-width:1;"/><polygon fill="#181818" points="1069.89,67,1060.89,63,1064.89,67,1060.89,71,1069.89,67" style="stroke:#181818;stroke-width:1;stroke-linejoin:miter;stroke-miterlimit:10;"/></g><?plantuml-src TLB9Rjim4BtpAmO-P3auWEEbG108I9rRaTQ0cvvqcL0JYH4r54IgghlyUqcQJeGuFaWOpdjlbaUUmsU3NG5tZ7hdbBGmXKTBi4R_krTOTjY8SrX_UzZ0VBdmw7V21bRBJxEPqFJim1deL5avA5H7qYd3mjQAM_HAQ57MMDBMxJH1W95BJIC2IcUwFOm3MTEG4347aqrdNhm27gXvecu2Q5DuH43sFH9Z7nyeNv2VmduvNzprhYBsAsAOCUSp21dJgTynSHdbsvrrr0YHoi1q-ZSxT1Mlyx_LXPiZ_pQwBnLFu8y0w2t9OEJaXwBXFJFdUxHLB1DxFwvdOycM21pQsaBh1v56zmqdtlLf7bghIYPApFd7J6cQLfCZxulvwLKQhOElC13LDYaNO-MwCiQ62snDvnINEG-A2pF0HPHS9iroh1dvJN2Miwn8rj2cEqCfoHvwhSG_RtbqsJkUHIVy1rTN8Rxs9j_UAfQwBoZBHiZy9B8uYQoEa6L2PX6XNuwuyC3R4yZYQY9ems7_Hlu3?></g></svg>